<?xml version="1.0" standalone="no"?>
<!DOCTYPE svg PUBLIC "-//W3C//DTD SVG 20010904//EN"
 "http://www.w3.org/TR/2001/REC-SVG-20010904/DTD/svg10.dtd">
<svg version="1.0" xmlns="http://www.w3.org/2000/svg"
 width="1915.000000pt" height="1915.000000pt" viewBox="0 0 1915.000000 1915.000000"
 preserveAspectRatio="xMidYMid meet">
<metadata>
Created by potrace 1.14, written by Peter Selinger 2001-2017
</metadata>
<g transform="translate(0.000000,1915.000000) scale(0.100000,-0.100000)"
fill="#000000" stroke="none">
<path d="M17739 17643 c-26 -31 -124 -87 -378 -214 -141 -70 -290 -137 -331
-150 -41 -12 -102 -35 -135 -49 -158 -72 -505 -190 -641 -220 -55 -11 -142
-34 -194 -50 -52 -16 -138 -38 -190 -49 -52 -11 -156 -36 -230 -55 -87 -22
-192 -40 -295 -51 -88 -9 -187 -20 -220 -26 -126 -21 -352 -49 -405 -49 -30 0
-82 -7 -115 -15 -33 -8 -79 -14 -101 -15 -23 0 -123 -14 -222 -30 -252 -43
-538 -137 -740 -244 -146 -77 -321 -191 -447 -291 -175 -139 -497 -471 -810
-834 -50 -58 -123 -143 -164 -190 -41 -47 -106 -122 -146 -166 -82 -92 -441
-520 -565 -675 -277 -345 -687 -784 -852 -911 -42 -32 -86 -70 -97 -85 -20
-25 -23 -26 -67 -15 -26 7 -74 23 -107 37 -57 24 -111 34 -123 21 -3 -3 0 -16
7 -29 11 -20 10 -22 -3 -10 -13 10 -17 10 -21 -2 -4 -9 2 -21 12 -28 17 -12
41 -49 41 -64 0 -3 -19 11 -42 31 -45 41 -218 127 -289 145 -68 16 -213 37
-227 32 -26 -8 -9 -30 62 -76 40 -26 88 -63 107 -83 l34 -37 -45 36 c-57 44
-162 108 -178 108 -6 0 -12 -4 -12 -9 0 -8 24 -25 109 -76 31 -19 92 -68 88
-71 -2 -2 -50 13 -108 32 l-104 37 -267 4 c-342 7 -371 0 -260 -56 61 -31 162
-116 127 -107 -11 3 -54 6 -95 7 -81 3 -172 26 -220 56 -16 10 -42 43 -57 73
-20 40 -46 69 -93 105 -181 140 -593 577 -880 935 -122 153 -482 582 -565 675
-68 76 -102 115 -310 356 -296 344 -574 634 -760 793 -254 216 -552 382 -870
485 -187 60 -481 120 -589 121 -22 1 -68 7 -101 15 -33 8 -85 15 -115 15 -53
0 -279 28 -405 49 -33 6 -132 17 -220 26 -106 11 -205 28 -292 50 -73 19 -176
44 -230 56 -54 11 -150 36 -213 54 -63 18 -142 39 -174 45 -118 24 -434 131
-619 210 -50 22 -123 49 -162 61 -71 21 -516 238 -624 304 -59 35 -85 43 -95
26 -18 -28 68 -195 212 -415 85 -129 288 -336 387 -395 39 -23 118 -74 176
-114 230 -156 352 -225 476 -268 48 -17 137 -58 200 -91 100 -53 178 -84 468
-189 96 -34 87 -35 -70 -9 -66 12 -174 30 -240 41 -291 50 -591 129 -866 230
-223 81 -436 150 -499 160 -36 6 -77 19 -92 27 -15 9 -30 13 -33 10 -10 -10
17 -100 48 -163 73 -149 471 -476 722 -595 44 -20 118 -51 165 -68 118 -43
497 -136 660 -162 74 -11 169 -30 210 -40 41 -11 107 -24 145 -29 39 -5 124
-22 190 -36 116 -25 151 -32 317 -56 43 -7 75 -15 73 -19 -3 -4 -44 -11 -92
-14 -94 -7 -273 -28 -443 -52 -58 -8 -134 -14 -170 -14 -36 0 -85 -5 -110 -11
-24 -5 -101 -15 -170 -20 -69 -6 -177 -14 -240 -19 -63 -5 -211 -14 -329 -19
-249 -11 -261 -15 -209 -73 57 -62 151 -130 225 -165 40 -18 134 -48 210 -66
l138 -32 285 1 c218 1 306 5 375 17 50 10 107 17 128 17 21 0 82 9 135 19 53
11 122 22 152 25 l55 6 -38 -23 c-21 -12 -96 -55 -165 -96 -287 -167 -627
-390 -830 -544 -31 -24 -139 -99 -240 -166 -100 -68 -192 -136 -203 -152 -20
-28 -20 -31 -5 -54 25 -38 52 -51 176 -85 106 -30 122 -32 212 -25 160 11 294
52 517 159 304 145 581 246 793 290 138 29 141 26 57 -53 -41 -37 -108 -96
-149 -129 -41 -33 -109 -88 -150 -122 -113 -93 -562 -411 -715 -508 -86 -54
-289 -215 -430 -341 -44 -40 -86 -76 -93 -82 -19 -15 -14 -29 14 -39 47 -18
287 -42 364 -37 109 8 403 64 490 94 84 29 243 106 322 157 120 76 288 158
316 154 131 -23 205 -45 277 -83 44 -23 95 -46 113 -50 l34 -7 -49 -32 c-53
-36 -345 -173 -517 -243 -148 -61 -388 -168 -457 -205 -61 -32 -92 -74 -63
-85 9 -3 69 4 133 16 150 27 212 27 308 -3 43 -14 105 -32 138 -40 33 -8 84
-22 113 -30 89 -25 390 -32 552 -12 226 27 260 26 370 -17 94 -37 248 -73 365
-86 l60 -6 -48 -45 c-29 -27 -108 -75 -210 -127 -89 -47 -207 -108 -262 -138
-55 -29 -154 -81 -221 -114 -66 -34 -131 -71 -144 -83 l-23 -22 21 -9 c12 -6
22 -14 22 -18 0 -5 26 -16 58 -26 85 -26 311 -24 410 3 68 19 76 20 107 5 19
-9 34 -21 35 -27 0 -20 27 -23 50 -7 12 8 65 32 118 53 115 45 492 225 563
269 39 24 62 31 100 31 37 0 49 -4 49 -15 0 -19 -69 -151 -113 -218 -213 -323
-264 -398 -296 -432 -44 -47 -153 -190 -171 -224 -15 -30 -1 -47 28 -32 11 6
37 11 56 11 87 0 272 77 396 165 l45 32 -59 -121 c-37 -76 -61 -138 -64 -168
-4 -46 -4 -46 32 -56 55 -16 160 3 223 38 93 53 164 101 227 154 l62 53 -19
-56 c-57 -169 -71 -283 -38 -301 75 -40 285 68 379 195 l22 30 -6 -70 c-7 -84
7 -112 49 -101 14 3 74 50 132 104 113 103 267 233 272 229 5 -6 -27 -165 -42
-207 -10 -25 -23 -103 -31 -175 -8 -71 -25 -179 -38 -240 -13 -60 -27 -137
-31 -169 -4 -33 -20 -102 -36 -155 -34 -109 -28 -123 35 -88 36 20 203 181
306 296 l45 50 13 -25 c7 -13 28 -69 48 -125 25 -72 53 -127 101 -197 82 -120
98 -159 106 -247 6 -63 50 -258 79 -345 6 -19 12 -41 12 -50 1 -8 12 -46 24
-85 36 -117 76 -343 132 -750 l39 -279 -27 -25 c-15 -14 -29 -25 -32 -25 -3
-1 -4 -4 -3 -8 5 -14 -14 -9 -27 7 -8 9 -8 15 -2 15 7 0 8 10 2 30 -6 21 -5
30 3 30 8 0 8 3 2 8 -5 4 -10 18 -10 32 1 14 -3 28 -9 32 -5 3 -9 20 -8 37 0
17 -4 33 -9 36 -5 4 -9 15 -9 26 0 10 -4 19 -10 19 -5 0 -10 6 -10 13 0 7 -9
18 -20 25 -12 7 -18 17 -15 22 3 6 -3 10 -14 10 -12 0 -21 4 -21 10 0 5 -6 9
-12 7 -7 -1 -12 3 -11 10 2 7 -3 10 -11 7 -7 -3 -30 2 -50 10 -20 8 -34 11
-30 5 3 -6 -3 -5 -14 2 -12 7 -18 17 -16 21 5 7 -3 9 -23 7 -4 0 -11 9 -15 21
-7 19 -11 21 -26 9 -14 -11 -15 -11 -5 0 9 11 4 25 -24 65 -19 28 -40 50 -46
48 -6 -2 -5 4 3 12 8 11 9 16 1 16 -6 0 -11 7 -11 15 0 8 -4 15 -9 15 -5 0
-11 11 -15 23 -6 27 -42 30 -60 5 -6 -8 -18 -17 -26 -21 -11 -4 -11 -6 -2 -6
10 -1 10 -5 -2 -17 -9 -8 -14 -20 -11 -25 4 -5 1 -9 -4 -9 -6 0 -11 -7 -11
-15 0 -8 -4 -15 -10 -15 -5 0 -10 -9 -10 -19 0 -11 -4 -22 -9 -25 -5 -3 -12
-22 -15 -41 -4 -19 -11 -35 -16 -35 -6 0 -10 -5 -10 -11 0 -5 6 -7 13 -4 6 4
5 1 -4 -7 -9 -7 -15 -23 -14 -35 1 -13 -2 -23 -7 -23 -4 0 -8 -7 -8 -16 0 -8
-4 -13 -9 -10 -5 4 -7 -4 -3 -16 3 -14 1 -19 -6 -14 -8 5 -10 2 -6 -8 3 -9 11
-16 18 -16 6 0 4 -4 -4 -10 -8 -5 -11 -12 -7 -16 4 -4 2 -13 -4 -20 -6 -8 -9
-21 -5 -29 3 -8 0 -15 -6 -15 -6 0 -8 -3 -5 -7 4 -3 1 -13 -6 -21 -10 -13 -9
-14 1 -8 12 7 12 4 2 -13 -17 -33 -20 -61 -7 -61 7 0 6 -4 -3 -10 -8 -5 -11
-12 -7 -16 4 -4 2 -14 -5 -21 -9 -11 -9 -17 3 -24 11 -7 9 -9 -8 -9 -15 0 -23
6 -23 18 -1 21 -25 54 -33 45 -4 -3 -7 3 -7 14 0 12 -7 23 -15 27 -8 3 -12 12
-9 21 4 9 3 15 -2 14 -18 -3 -34 1 -33 9 2 15 -14 52 -23 52 -13 0 -38 26 -38
39 0 6 -4 11 -10 11 -5 0 -25 15 -44 34 -19 19 -37 32 -40 29 -3 -4 -6 1 -6
11 0 9 -4 15 -9 11 -5 -3 -12 -1 -16 5 -4 6 -11 8 -16 5 -5 -3 -6 2 -2 11 4
11 3 15 -4 11 -14 -9 -46 21 -38 34 4 5 -2 6 -11 2 -12 -4 -15 -3 -10 5 4 7 1
12 -6 12 -7 1 -29 14 -48 30 -19 17 -40 30 -47 30 -7 0 -13 5 -13 10 0 6 -9
10 -19 10 -11 0 -26 8 -33 19 -7 10 -21 17 -31 15 -15 -2 -16 0 -6 12 9 11 8
14 -7 14 -11 0 -25 9 -32 20 -7 11 -17 20 -23 20 -14 0 -59 46 -52 54 3 3 -4
4 -16 1 -19 -3 -26 5 -22 28 1 5 -2 6 -7 3 -5 -3 -24 8 -43 25 -57 49 -63 54
-71 52 -4 -2 -5 6 -3 17 3 14 -2 20 -16 20 -10 0 -18 6 -16 13 1 6 -4 11 -11
9 -10 -2 -11 4 -6 20 6 20 5 21 -9 10 -11 -10 -16 -28 -14 -58 1 -24 5 -44 8
-44 4 0 6 -11 4 -25 -1 -14 1 -25 6 -25 4 0 11 -16 15 -35 3 -19 11 -35 18
-35 6 0 4 -5 -4 -10 -13 -9 -13 -11 0 -20 8 -5 11 -10 6 -10 -5 0 -3 -7 4 -15
10 -12 9 -15 -6 -15 -16 0 -16 -2 -4 -9 8 -6 17 -8 21 -6 3 3 5 -7 3 -20 -1
-14 2 -25 6 -25 5 0 7 -9 5 -20 -2 -11 0 -20 6 -20 5 0 9 -7 9 -16 0 -11 5
-14 17 -10 15 6 15 4 -2 -14 -10 -11 -13 -20 -7 -20 7 0 11 -3 10 -7 -1 -5 3
-18 10 -31 9 -16 10 -22 1 -22 -8 0 -9 -4 0 -13 6 -8 12 -27 14 -43 2 -17 7
-35 11 -42 4 -7 4 -12 -1 -12 -4 0 -1 -5 7 -10 11 -7 11 -10 2 -10 -10 0 -10
-5 -2 -20 6 -11 7 -20 3 -20 -4 0 -1 -5 7 -10 12 -8 12 -10 1 -10 -10 0 -11
-3 -2 -14 6 -7 12 -25 13 -40 1 -14 5 -26 8 -26 3 0 6 -19 7 -42 1 -22 7 -44
13 -48 8 -5 9 -10 2 -14 -12 -7 -10 -23 6 -52 6 -12 8 -24 5 -28 -3 -3 0 -6 8
-6 11 0 11 -2 -1 -10 -12 -8 -12 -10 -1 -10 9 0 12 -9 9 -30 -3 -16 -1 -30 4
-30 5 0 6 -4 3 -10 -3 -5 -1 -10 6 -10 7 0 10 -3 7 -6 -3 -3 2 -32 12 -64 10
-32 15 -61 12 -64 -3 -3 0 -6 6 -6 7 0 11 -3 10 -7 -4 -14 26 -83 35 -83 4 0
6 -4 2 -9 -3 -6 1 -13 9 -18 8 -4 15 -12 15 -18 0 -15 45 -84 54 -85 5 0 5 -5
2 -10 -3 -6 -1 -10 5 -10 7 0 10 -7 7 -14 -4 -11 -1 -13 10 -9 11 4 14 2 9 -5
-4 -7 -1 -12 7 -12 7 0 23 -13 35 -30 13 -17 29 -30 37 -30 8 0 19 -9 25 -20
6 -11 17 -20 25 -20 8 0 18 -7 23 -17 6 -10 16 -14 28 -10 15 6 14 2 -5 -13
-18 -16 -27 -18 -37 -9 -8 6 -25 9 -39 7 -14 -3 -25 -1 -25 6 0 6 -4 5 -9 -3
-7 -11 -9 -11 -14 0 -3 8 -6 9 -6 3 -1 -6 -16 -9 -36 -8 -19 2 -37 -1 -40 -6
-3 -5 -12 -7 -20 -3 -8 3 -15 0 -15 -7 0 -6 -5 -8 -10 -5 -10 6 -102 -34 -108
-48 -2 -4 -8 -5 -13 -1 -5 3 -9 1 -9 -4 0 -6 -11 -13 -25 -16 -14 -4 -25 -11
-25 -16 0 -6 -4 -10 -10 -10 -11 0 -25 -11 -88 -70 -22 -21 -38 -41 -35 -44 4
-3 -2 -6 -12 -6 -10 0 -15 -3 -12 -6 4 -4 -3 -16 -16 -26 -12 -11 -22 -23 -22
-26 0 -4 -6 -16 -14 -27 -9 -15 -11 -16 -7 -2 9 28 -4 20 -15 -10 -6 -16 -11
-30 -12 -33 -1 -3 -19 -22 -40 -42 -21 -21 -35 -38 -32 -38 3 0 -4 -11 -17
-24 -38 -39 -58 -66 -58 -77 0 -5 -4 -8 -8 -5 -4 2 -17 -9 -27 -25 -11 -16
-26 -29 -34 -29 -8 0 -12 -3 -8 -6 3 -3 -5 -16 -18 -29 -14 -12 -22 -25 -18
-28 3 -4 2 -7 -3 -7 -5 0 -10 -9 -10 -19 0 -16 4 -18 19 -9 13 6 17 6 13 0 -3
-6 12 -10 39 -9 24 0 41 5 38 10 -3 5 4 4 16 -2 12 -7 21 -8 21 -2 0 5 11 8
25 6 14 -1 25 3 25 9 0 6 4 4 10 -4 8 -12 10 -12 15 2 4 10 14 14 26 11 11 -3
19 0 19 6 0 7 5 9 11 5 6 -3 15 0 20 7 7 11 9 11 9 1 0 -7 5 -10 10 -7 6 4 8
10 5 14 -2 5 7 6 20 3 15 -2 25 0 25 7 0 6 12 11 26 11 14 0 23 4 19 10 -3 6
-1 10 4 10 6 0 11 -6 11 -12 0 -9 3 -9 9 1 5 8 17 15 28 16 10 1 37 11 61 22
23 12 40 17 36 12 -10 -16 9 -9 22 9 11 14 15 14 23 3 6 -9 11 -10 15 -2 4 6
12 9 17 6 5 -4 9 -2 9 4 0 6 7 7 17 4 12 -5 14 -3 8 8 -6 11 -5 12 5 2 9 -8
19 -9 32 -2 13 7 18 6 19 -3 0 -7 4 -4 9 7 5 11 9 15 9 8 1 -8 18 -10 54 -6
28 3 54 7 56 9 2 2 10 -1 18 -7 10 -9 13 -7 13 7 0 16 2 17 10 4 9 -13 11 -13
20 0 9 13 10 13 10 0 0 -12 2 -13 9 -1 7 11 9 11 13 0 4 -11 8 -12 20 -2 8 7
18 10 21 6 4 -3 7 -2 7 4 0 5 10 9 23 8 12 -1 28 3 36 9 11 8 13 8 7 -1 -5 -9
-2 -11 8 -7 9 3 13 11 9 18 -4 6 1 5 11 -3 13 -11 16 -11 14 -2 -2 8 4 15 13
16 9 2 16 -3 16 -11 0 -7 -4 -11 -8 -9 -10 7 -20 -25 -12 -37 3 -6 2 -9 -3 -6
-5 3 -18 -4 -29 -15 -12 -11 -14 -17 -5 -13 8 4 6 0 -4 -8 -11 -9 -16 -16 -10
-16 5 0 2 -6 -6 -13 -9 -7 -15 -19 -15 -27 0 -8 -5 -21 -12 -28 -7 -8 -11 -17
-9 -21 4 -7 -40 -46 -75 -66 -9 -5 -91 -59 -180 -120 -90 -60 -168 -112 -174
-114 -5 -2 -12 -7 -15 -11 -4 -6 -65 -48 -109 -75 -59 -36 -133 -100 -125
-108 2 -2 -10 -16 -26 -32 -17 -16 -30 -34 -30 -41 0 -7 -4 -14 -8 -16 -10 -4
-122 -173 -122 -184 0 -4 -6 -15 -14 -23 -12 -14 -29 -42 -70 -116 -6 -11 -27
-45 -47 -75 -19 -30 -38 -60 -41 -65 -4 -6 -1 -18 6 -27 12 -16 14 -16 34 3
12 11 22 16 22 12 0 -4 6 -1 13 8 7 9 48 37 92 64 68 41 157 105 175 125 3 3
26 18 52 33 26 15 53 33 60 40 20 18 105 77 112 77 4 0 59 40 124 88 141 106
207 152 220 152 6 0 12 4 14 8 2 5 32 28 68 52 36 24 85 60 110 80 79 64 188
139 194 133 3 -4 6 -1 6 5 0 7 7 12 15 12 8 0 15 4 15 9 0 5 26 26 58 47 31
22 58 42 60 46 2 4 19 12 38 18 19 6 34 16 34 21 0 5 6 9 14 9 8 0 21 7 29 15
8 8 20 16 27 17 7 2 24 14 39 28 54 51 101 90 106 90 3 0 40 25 80 55 41 30
77 55 80 55 3 0 13 7 22 15 10 8 61 46 113 84 l95 70 7 -60 c4 -33 9 -68 12
-77 4 -13 -8 -29 -41 -57 -27 -21 -55 -45 -63 -52 -8 -7 -37 -31 -65 -54 -27
-22 -72 -59 -99 -82 -27 -23 -60 -51 -73 -62 -14 -11 -35 -29 -48 -40 -13 -11
-35 -30 -49 -42 -14 -13 -28 -23 -30 -23 -2 0 -20 -15 -39 -32 -19 -18 -48
-43 -63 -55 -16 -12 -40 -31 -54 -43 -14 -12 -40 -34 -59 -48 -19 -15 -39 -32
-45 -37 -6 -6 -51 -44 -101 -85 -103 -86 -133 -111 -149 -125 -6 -6 -38 -33
-71 -60 -33 -28 -65 -54 -71 -60 -6 -5 -25 -21 -43 -35 -18 -14 -42 -34 -55
-45 -12 -11 -47 -40 -76 -65 -30 -25 -61 -52 -70 -61 -9 -8 -25 -22 -37 -30
-11 -8 -48 -39 -83 -69 -34 -30 -70 -59 -78 -64 -9 -5 -26 -19 -37 -30 -22
-21 -81 -74 -155 -136 -23 -19 -52 -44 -64 -55 -25 -22 -42 -36 -126 -105 -30
-25 -67 -56 -82 -70 -15 -14 -41 -36 -58 -50 -72 -57 -80 -67 -78 -93 1 -14
-3 -36 -9 -49 -19 -41 -95 -223 -97 -233 -1 -5 -4 -14 -7 -20 -6 -9 -81 -229
-85 -247 -1 -5 -3 -10 -4 -13 -1 -3 -3 -8 -4 -12 -2 -5 -8 -28 -15 -53 -7 -25
-14 -49 -15 -55 -1 -5 -4 -14 -7 -20 -6 -9 -29 -74 -36 -100 -10 -39 -49 -141
-55 -143 -4 -2 -4 -10 -1 -18 3 -8 1 -14 -3 -14 -5 0 -10 -20 -12 -44 -1 -31
2 -44 10 -42 19 3 151 48 163 55 6 3 18 7 28 8 10 2 28 8 40 15 12 7 27 13 32
14 6 1 84 28 175 59 91 31 185 62 210 69 25 7 62 20 83 29 20 9 39 16 42 17 9
1 40 12 60 21 47 20 141 53 148 51 4 -1 7 2 7 8 0 5 6 7 14 4 8 -3 17 -1 20 5
4 6 12 8 19 5 12 -4 67 47 67 63 0 5 23 33 50 63 28 30 59 65 70 78 12 12 18
22 15 22 -9 0 56 83 72 93 7 4 13 13 13 20 0 7 9 18 20 25 11 7 20 16 20 22 0
5 10 20 23 32 12 13 34 39 49 58 14 19 36 46 47 60 11 14 24 30 28 35 5 6 41
51 81 100 40 50 80 99 89 110 9 11 28 34 42 51 14 16 37 45 51 64 14 19 35 45
48 58 12 12 22 26 22 30 0 4 25 33 55 66 30 32 55 63 55 67 0 5 5 9 10 9 6 0
14 8 18 19 8 20 46 71 80 107 12 12 22 26 22 30 0 3 14 19 30 34 17 15 30 32
30 37 0 4 15 24 33 44 17 20 41 48 52 64 21 28 63 79 103 123 12 14 22 30 22
35 0 6 2 8 5 6 4 -5 -56 -361 -70 -414 -3 -11 -20 -36 -37 -57 -18 -20 -49
-57 -68 -83 -19 -26 -47 -60 -61 -76 -15 -16 -35 -41 -45 -55 -11 -15 -24 -31
-30 -38 -6 -6 -27 -33 -47 -59 -20 -26 -42 -54 -49 -62 -15 -17 -20 -23 -78
-100 -25 -32 -51 -66 -58 -75 -8 -8 -45 -55 -83 -105 -39 -49 -81 -102 -93
-117 -13 -15 -26 -34 -29 -43 -4 -8 -11 -15 -17 -15 -5 0 -10 -6 -10 -13 0 -7
-8 -20 -17 -28 -10 -9 -25 -25 -33 -35 -8 -11 -33 -42 -55 -69 -22 -28 -47
-58 -55 -69 -8 -10 -23 -26 -32 -35 -16 -15 -16 -20 -4 -37 14 -18 15 -18 21
-1 4 9 13 17 21 17 8 0 14 5 14 10 0 6 4 10 9 10 10 0 184 100 209 120 10 8
34 23 53 34 18 10 39 24 44 30 6 6 36 25 67 41 32 17 58 33 58 38 0 4 10 7 23
7 23 1 57 22 60 37 1 10 16 29 40 51 9 9 17 22 17 29 0 7 3 13 8 13 4 0 32 33
62 72 30 40 58 75 62 76 5 2 8 9 8 17 0 7 7 19 16 26 20 16 19 10 -31 -246
-19 -94 -43 -231 -55 -305 -11 -74 -34 -207 -51 -295 -17 -88 -32 -176 -34
-195 -1 -19 -4 -35 -5 -35 -1 0 -4 -33 -6 -73 -4 -71 -3 -75 43 -155 49 -88
183 -287 192 -287 27 1 28 7 372 1935 133 746 181 1006 225 1213 l5 23 42 -31
c23 -17 53 -39 66 -49 l24 -18 -46 -294 c-63 -400 -138 -914 -252 -1729 -53
-377 -119 -842 -146 -1034 -27 -192 -49 -359 -49 -370 0 -12 10 -34 22 -49 12
-15 79 -134 148 -265 236 -443 232 -436 244 -425 4 4 4 -1 0 -11 -5 -13 -4
-17 3 -13 7 4 32 -33 63 -94 29 -56 47 -98 41 -95 -8 5 -8 -1 0 -21 18 -50 60
-114 69 -108 6 4 7 -1 3 -11 -5 -13 -3 -15 7 -9 8 5 11 4 6 -3 -8 -14 38 -108
60 -120 9 -5 16 -13 16 -18 1 -5 6 -18 13 -29 6 -11 47 -82 91 -159 43 -76 89
-155 101 -175 13 -20 32 -54 44 -76 12 -22 36 -60 53 -85 17 -25 45 -72 62
-105 72 -138 112 -206 157 -271 82 -120 119 -177 149 -237 17 -33 33 -55 37
-50 4 4 43 82 86 173 43 91 168 332 278 535 110 204 260 483 334 620 74 138
147 270 163 295 15 25 93 171 174 325 80 154 166 314 191 355 24 41 50 85 56
98 13 24 18 -16 -166 1292 -40 288 -72 527 -69 531 6 10 -45 359 -56 384 -4
11 -29 164 -55 340 -25 176 -67 452 -92 614 l-46 294 24 18 c13 10 43 32 66
49 l42 31 5 -23 c47 -225 77 -384 141 -743 42 -236 146 -817 231 -1290 86
-473 165 -914 176 -980 19 -108 29 -134 49 -135 8 0 172 244 194 290 10 19 24
42 32 51 23 27 12 151 -41 432 -19 100 -40 218 -46 262 -6 44 -20 130 -30 190
-10 61 -26 157 -35 215 -9 58 -19 116 -22 130 -5 19 4 13 40 -30 26 -30 47
-58 47 -61 0 -4 11 -19 25 -35 46 -52 135 -179 135 -191 0 -7 4 -13 10 -13 5
0 20 -9 33 -20 30 -26 143 -80 151 -73 3 4 6 1 6 -6 0 -7 4 -9 10 -6 11 7 65
-19 65 -32 0 -4 8 -8 17 -7 10 0 16 -1 13 -4 -2 -3 21 -18 53 -34 31 -17 59
-33 62 -37 3 -3 22 -15 43 -26 22 -11 49 -30 62 -43 22 -22 24 -22 33 -5 8 15
4 26 -21 56 -18 20 -40 47 -49 59 -10 13 -29 37 -43 53 -15 17 -71 89 -126
160 -90 118 -186 239 -243 305 -11 14 -28 36 -37 50 -9 14 -27 36 -39 50 -12
14 -36 44 -53 68 -17 23 -34 42 -39 42 -4 0 -8 7 -8 15 0 8 -9 19 -20 25 -11
6 -20 17 -20 25 0 7 -3 15 -7 17 -9 4 -101 115 -123 148 -16 24 -70 91 -81
100 -7 6 -17 47 -24 105 -3 22 -8 51 -11 65 -15 64 -52 255 -49 258 2 2 22
-22 46 -52 24 -31 47 -56 52 -56 4 0 6 -4 2 -9 -3 -5 4 -13 16 -16 11 -4 18
-9 15 -12 -4 -5 44 -71 79 -109 6 -6 24 -28 40 -49 17 -21 36 -44 43 -51 6 -7
12 -15 12 -19 0 -3 16 -21 35 -41 19 -19 35 -38 35 -42 0 -4 16 -24 35 -44 18
-21 31 -38 28 -38 -3 0 3 -8 13 -17 11 -10 39 -44 63 -75 24 -32 48 -58 54
-58 6 0 8 -3 4 -6 -3 -4 -1 -12 6 -18 7 -7 26 -30 42 -51 17 -21 36 -44 43
-51 6 -7 12 -15 12 -18 0 -3 10 -16 23 -29 12 -13 29 -32 38 -43 118 -149 164
-204 171 -204 5 0 6 -4 3 -10 -3 -5 3 -15 15 -22 11 -7 20 -17 20 -23 0 -5 21
-32 46 -60 25 -27 60 -69 77 -92 17 -24 34 -43 39 -43 4 0 8 -6 8 -13 0 -7 9
-19 20 -27 11 -8 20 -19 20 -25 0 -6 8 -18 18 -26 9 -9 43 -50 74 -91 l57 -75
118 -48 c65 -27 172 -67 238 -91 307 -108 328 -115 345 -119 19 -5 222 -75
312 -108 73 -27 93 -22 77 20 -5 13 -8 27 -7 31 1 4 -1 14 -5 22 -3 8 -15 42
-26 75 -11 33 -33 98 -50 145 -24 68 -57 176 -76 245 -2 6 -6 20 -10 32 -4 12
-6 25 -5 29 1 4 -2 10 -7 13 -4 3 -16 31 -26 61 -24 72 -57 157 -93 234 -8 19
-17 40 -18 48 -1 7 -7 23 -14 34 -6 12 -8 24 -5 28 3 3 1 6 -6 6 -8 0 -9 5 -1
19 8 16 2 26 -43 62 -28 23 -56 47 -62 53 -5 6 -37 33 -70 60 -87 72 -87 72
-125 107 -19 17 -51 43 -70 58 -19 14 -54 45 -79 69 -24 23 -47 42 -50 42 -3
0 -27 19 -53 43 -25 23 -55 49 -65 57 -120 99 -201 168 -214 182 -9 10 -19 18
-23 18 -4 0 -17 10 -30 23 -29 28 -70 61 -75 62 -3 0 -16 11 -31 25 -43 42
-120 108 -120 103 0 -4 -11 6 -94 82 -27 25 -52 45 -56 45 -4 0 -21 12 -37 27
-85 78 -102 93 -107 93 -3 0 -16 10 -29 23 -13 12 -32 29 -43 37 -45 35 -131
107 -152 128 -13 12 -26 22 -30 22 -4 0 -41 32 -82 71 -41 39 -91 81 -110 93
-19 13 -48 35 -63 50 -15 14 -32 26 -38 26 -5 0 -9 4 -9 9 0 6 -34 36 -75 68
-41 31 -75 61 -75 65 0 4 -4 8 -9 8 -6 0 -22 11 -37 25 -24 22 -25 27 -15 56
6 18 11 44 11 58 0 32 17 60 28 46 4 -6 32 -28 62 -50 30 -22 58 -44 62 -50 5
-6 8 -6 8 0 0 6 3 6 8 -1 9 -13 192 -145 192 -139 0 3 8 -3 19 -12 10 -10 49
-38 86 -63 36 -25 73 -51 80 -57 8 -7 18 -13 24 -13 6 0 11 -4 11 -10 0 -5 7
-10 15 -10 8 0 15 -4 15 -9 0 -5 8 -12 18 -15 9 -3 29 -17 45 -31 15 -14 27
-22 27 -18 0 4 4 3 8 -3 4 -6 59 -46 122 -89 63 -43 117 -82 118 -87 2 -4 10
-8 18 -8 8 0 14 -4 14 -10 0 -5 4 -10 10 -10 5 0 18 -6 27 -14 52 -43 114 -86
123 -86 6 0 10 -3 10 -7 0 -5 25 -24 55 -43 30 -19 55 -38 55 -42 0 -5 5 -8
10 -8 6 0 16 -5 23 -10 7 -6 37 -28 67 -50 30 -22 60 -43 65 -47 6 -4 39 -28
75 -53 36 -24 66 -48 68 -52 2 -4 10 -8 17 -8 7 0 15 -4 17 -8 2 -5 32 -28 68
-52 36 -24 67 -46 70 -50 3 -3 31 -21 63 -40 31 -19 57 -38 57 -42 0 -4 4 -8
9 -8 6 0 22 -11 37 -25 15 -14 53 -40 83 -57 31 -17 75 -47 97 -65 36 -29 43
-31 54 -18 11 13 7 24 -19 66 -17 28 -31 52 -31 55 0 3 -5 10 -10 17 -10 11
-84 133 -131 215 -30 51 -53 86 -66 100 -7 7 -13 16 -13 20 0 4 -14 21 -30 39
-17 18 -30 36 -30 41 0 23 -86 96 -210 179 -74 50 -198 133 -275 185 -77 52
-158 106 -180 121 -22 15 -46 31 -53 37 -6 6 -12 8 -12 5 0 -3 -6 -1 -13 5
-22 19 -137 100 -142 100 -5 0 -96 61 -105 70 -3 3 -30 21 -60 40 -30 19 -56
38 -58 42 -2 5 -8 8 -13 8 -4 0 -34 17 -66 39 -32 21 -91 59 -131 85 -40 26
-78 53 -85 59 -20 19 -50 36 -79 48 -16 6 -28 15 -28 20 0 5 -5 9 -10 9 -10 0
-69 38 -80 51 -3 3 -10 8 -16 10 -6 2 -47 31 -92 64 l-81 60 -3 220 c-3 298 1
487 12 565 6 36 26 180 46 320 78 564 157 940 197 940 5 0 5 -5 2 -10 -3 -5
-3 -10 2 -10 4 0 8 -13 8 -29 1 -16 -2 -28 -6 -25 -4 2 -11 -1 -15 -7 -4 -7
-3 -9 3 -6 18 11 34 -19 39 -70 6 -71 9 -87 19 -102 5 -10 4 -12 -3 -7 -7 4
-12 1 -12 -9 0 -10 -5 -13 -12 -9 -7 4 -4 -3 7 -16 11 -13 14 -20 8 -16 -7 4
-13 2 -13 -3 0 -6 4 -11 10 -11 5 0 7 -7 4 -15 -4 -9 0 -15 7 -15 11 0 11 -2
0 -9 -13 -8 -13 -12 0 -27 13 -16 12 -17 -6 -10 -16 6 -18 5 -7 -5 13 -14 17
-43 4 -35 -5 3 -7 -16 -5 -40 3 -33 0 -44 -8 -38 -8 5 -9 3 -4 -7 12 -19 14
-49 3 -55 -13 -8 -9 -26 5 -18 10 6 10 4 0 -7 -7 -7 -13 -26 -13 -41 0 -16 -6
-31 -13 -34 -15 -5 -19 -34 -5 -34 4 0 8 6 8 13 0 8 4 7 10 -3 8 -12 10 -12
10 5 0 17 2 17 10 5 6 -9 10 -11 10 -3 0 7 7 10 17 6 10 -4 14 -2 10 4 -4 6 0
14 9 17 10 4 13 2 8 -7 -5 -8 -2 -8 9 2 9 7 15 17 12 21 -3 5 3 6 14 3 10 -3
22 1 26 8 6 8 4 10 -5 4 -9 -5 -11 -4 -6 4 6 9 11 9 22 0 12 -10 13 -9 8 6 -5
13 -4 16 4 11 7 -4 12 -2 12 4 0 6 4 8 10 5 6 -3 10 0 10 7 0 7 9 19 20 26 12
7 18 18 14 24 -4 7 -3 8 4 4 7 -4 12 -2 12 4 0 6 5 8 10 5 6 -3 10 -1 10 5 0
6 4 8 10 5 6 -4 7 1 3 11 -4 12 -3 15 5 10 7 -4 14 3 18 19 3 14 11 22 17 18
6 -4 8 0 4 10 -3 9 -3 16 1 16 28 -4 34 1 21 18 -9 10 -9 14 -2 10 7 -5 17 1
23 14 7 13 8 19 2 15 -6 -3 -13 -3 -16 2 -3 5 0 9 7 9 7 0 23 4 37 7 24 7 26
5 28 -31 2 -20 8 -41 15 -45 7 -5 8 -8 1 -8 -6 0 -11 -7 -11 -15 0 -8 4 -15 8
-15 4 0 6 -9 4 -21 -3 -16 0 -19 12 -15 14 6 14 4 2 -10 -11 -14 -11 -18 -1
-22 10 -3 10 -7 1 -18 -8 -10 -8 -14 0 -14 6 0 11 -5 11 -11 0 -5 -6 -7 -12
-3 -8 5 -8 1 1 -10 13 -15 13 -19 0 -27 -11 -7 -10 -9 5 -9 15 0 16 -3 7 -14
-7 -9 -8 -17 -2 -20 5 -3 7 -15 4 -26 -3 -13 0 -20 8 -20 11 0 11 -2 -1 -10
-8 -5 -10 -10 -5 -10 6 0 11 -17 13 -37 1 -20 8 -40 14 -44 9 -6 8 -11 -1 -23
-11 -13 -11 -17 3 -22 9 -3 13 -10 10 -15 -3 -5 1 -9 8 -9 9 0 9 -3 -2 -10 -8
-5 -10 -10 -5 -10 6 0 17 -16 24 -35 7 -20 17 -32 23 -29 6 4 5 -3 -2 -16 -8
-15 -8 -20 -1 -16 7 4 11 -1 11 -13 0 -12 5 -21 10 -21 6 0 10 -7 10 -15 0 -8
6 -15 13 -15 9 0 8 -3 -2 -9 -11 -7 -9 -10 9 -16 18 -6 20 -9 9 -16 -11 -7
-10 -9 4 -9 10 0 15 -4 12 -10 -3 -5 -1 -10 5 -10 6 0 8 -5 5 -10 -3 -6 1 -13
10 -16 9 -4 14 -13 11 -20 -3 -8 1 -14 9 -14 8 0 14 -3 14 -7 -4 -25 2 -53 11
-48 6 4 10 -5 10 -20 0 -18 4 -24 13 -19 7 5 6 0 -3 -11 -8 -10 -10 -16 -4
-12 14 8 42 -25 36 -42 -3 -8 0 -11 6 -7 6 3 13 -3 17 -14 3 -11 11 -20 17
-20 6 0 7 -8 3 -17 -5 -14 -4 -15 6 -6 10 10 9 15 -1 28 -7 8 -8 15 -3 15 15
0 44 -36 36 -43 -11 -12 -9 -55 2 -53 13 2 71 46 61 46 -4 0 0 10 9 23 8 13
12 27 8 30 -3 4 -1 7 5 7 7 0 11 6 10 13 -2 6 3 11 11 9 11 -2 12 0 3 11 -9
10 -9 17 1 27 10 10 9 11 -3 5 -12 -6 -13 -5 -2 6 13 14 17 33 5 26 -5 -3 -8
5 -8 18 0 18 3 21 13 12 11 -9 11 -3 -1 25 -12 27 -12 38 -4 42 9 3 8 7 -2 14
-12 9 -12 13 -2 26 11 13 11 16 0 16 -9 0 -10 3 -4 8 13 9 17 32 6 32 -10 0
-9 19 2 38 5 6 4 12 -1 12 -10 0 -9 36 1 46 4 4 2 13 -5 21 -9 11 -8 13 2 11
9 -2 14 9 15 34 1 21 5 41 10 45 4 5 5 2 0 -6 -6 -10 -4 -12 4 -7 9 6 9 11 0
22 -9 11 -8 14 7 14 14 0 16 2 6 9 -15 9 -15 20 0 39 7 8 7 12 -2 12 -10 0
-10 3 0 15 10 12 10 15 -1 15 -11 0 -11 2 1 10 8 5 11 10 6 10 -5 0 -3 6 3 14
8 10 9 16 1 21 -7 4 -7 12 0 26 7 13 7 19 0 19 -5 0 -10 5 -10 11 0 5 5 7 11
3 8 -4 8 -1 1 12 -5 11 -8 27 -7 37 2 9 -1 17 -7 17 -6 0 -5 7 3 16 10 12 10
17 1 23 -7 4 -11 18 -8 32 2 13 -2 31 -9 39 -22 28 -26 50 -7 50 13 1 11 4 -7
14 -16 9 -20 16 -12 20 8 6 9 12 2 20 -6 7 -7 17 -3 21 4 5 2 5 -5 1 -7 -3
-14 2 -18 14 -3 11 -11 20 -16 20 -6 0 -8 4 -4 9 3 5 1 12 -5 16 -6 4 -8 11
-5 16 4 5 -3 9 -14 9 -12 0 -21 6 -21 14 0 8 -9 18 -20 21 -11 4 -17 11 -14
17 4 5 9 6 13 2 3 -5 15 -11 26 -12 11 -2 26 -9 34 -15 12 -10 13 -9 8 6 -4
11 -3 16 3 12 6 -3 10 -13 10 -21 0 -8 5 -14 11 -14 5 0 7 4 4 10 -3 5 0 7 9
4 8 -3 17 -12 20 -19 3 -8 13 -11 25 -8 12 3 21 1 21 -5 0 -6 10 -16 21 -23
17 -9 20 -8 14 3 -3 7 0 5 8 -5 8 -10 27 -20 42 -23 16 -3 37 -10 47 -15 11
-6 22 -8 26 -5 3 3 16 -1 30 -10 13 -9 21 -11 18 -5 -4 6 -2 11 3 11 6 0 11
-5 11 -11 0 -8 5 -8 15 1 9 8 15 8 15 2 0 -6 19 -10 45 -9 32 1 46 -2 49 -13
3 -11 4 -10 5 3 0 10 6 15 11 12 6 -3 29 -6 53 -7 23 0 47 -4 54 -10 7 -6 14
-5 19 3 5 8 3 9 -6 4 -8 -5 -11 -4 -7 3 9 13 47 4 47 -12 0 -7 3 -7 8 1 4 7
22 13 39 15 17 1 29 6 27 10 -8 13 11 9 25 -4 11 -10 13 -10 7 0 -5 8 3 12 28
12 19 0 37 6 39 13 4 9 6 8 6 -2 1 -11 4 -11 16 -1 8 7 22 10 30 6 9 -3 13 -2
10 4 -6 9 -2 12 28 14 6 1 18 8 24 16 11 13 14 13 22 0 9 -13 12 -13 23 1 16
20 52 34 42 16 -5 -8 -2 -8 9 2 9 7 23 11 32 7 8 -3 14 -2 14 2 -3 19 2 23 16
12 13 -11 14 -10 10 3 -4 8 -1 18 6 23 7 4 10 3 5 -4 -4 -6 1 -10 13 -9 11 0
17 5 15 9 -3 4 1 8 8 9 7 0 22 3 33 6 11 3 32 6 47 7 15 2 35 9 44 17 16 12
17 12 9 -1 -8 -13 -6 -13 8 -2 9 8 21 11 27 7 5 -3 10 -1 10 5 0 6 5 8 10 5 6
-4 18 -1 27 7 14 11 16 11 9 0 -7 -11 -4 -12 13 -3 12 7 25 10 29 7 5 -3 21 1
36 9 14 8 24 11 22 6 -3 -4 2 -8 10 -8 8 0 13 6 10 14 -3 7 -1 13 4 13 5 0 7
7 4 15 -5 13 -9 13 -22 3 -12 -10 -14 -10 -8 0 9 15 -6 16 -21 1 -8 -8 -15 -4
-27 12 -9 13 -16 18 -16 11 0 -6 -5 -12 -11 -12 -5 0 -7 4 -4 10 3 5 0 7 -8 4
-8 -3 -21 1 -28 9 -8 7 -19 12 -25 10 -7 -2 -19 3 -28 12 -9 9 -20 14 -25 10
-5 -3 -13 0 -17 6 -5 8 -3 9 6 4 9 -5 11 -4 6 3 -4 7 -14 12 -22 12 -8 0 -13
4 -10 9 3 4 -6 7 -20 5 -22 -2 -23 0 -12 13 12 15 10 15 -11 4 -13 -7 -21 -9
-18 -4 7 10 -45 53 -63 53 -5 0 -10 4 -10 10 0 5 -7 7 -15 4 -10 -4 -15 0 -15
11 0 9 -4 14 -9 10 -5 -3 -16 2 -24 10 -9 8 -24 15 -34 15 -15 0 -16 2 -3 10
13 9 13 10 0 11 -8 1 -18 1 -22 0 -5 0 -8 3 -8 8 0 5 -9 11 -20 14 -11 3 -20
11 -20 19 0 8 -18 25 -39 38 -21 14 -37 28 -34 33 2 4 -5 7 -16 7 -12 0 -21 5
-21 10 0 6 -5 10 -11 10 -7 0 -20 9 -30 21 -9 11 -21 20 -26 21 -4 0 -7 4 -5
9 1 5 -2 9 -8 9 -5 0 -10 -6 -11 -12 0 -7 -5 -3 -11 10 -6 12 -17 22 -25 22
-8 0 -23 9 -35 20 -16 15 -25 17 -35 9 -10 -9 -15 -6 -22 12 -5 13 -10 17 -10
10 -1 -12 -4 -12 -13 -3 -7 7 -20 12 -30 12 -10 0 -18 7 -18 15 0 16 54 48 64
37 4 -3 4 1 0 11 -3 10 -1 17 6 17 6 0 8 5 4 12 -4 6 -3 8 4 4 6 -3 24 7 41
23 16 16 32 26 35 23 3 -3 6 2 6 11 0 9 7 17 16 17 8 0 13 4 9 9 -3 6 4 15 15
21 11 6 20 17 20 25 0 8 5 15 11 15 6 0 9 7 6 14 -4 10 -1 13 9 9 10 -4 17 2
21 16 3 11 12 21 20 21 8 0 13 5 11 12 -3 7 6 22 20 35 14 13 21 27 16 34 -5
9 -2 10 9 6 12 -4 14 -2 10 10 -4 11 -2 14 5 9 6 -3 16 3 22 14 6 11 7 20 3
20 -4 0 0 5 10 11 9 5 21 8 25 5 5 -3 8 5 8 17 -1 13 4 21 12 19 6 -1 11 1 11
5 -4 22 2 33 13 27 8 -5 9 -2 5 10 -4 9 -3 15 2 12 5 -3 15 2 22 11 12 14 12
16 -1 9 -8 -4 -6 0 5 9 11 9 19 21 17 26 -1 5 2 9 8 9 5 0 10 7 10 15 0 8 4
15 8 15 21 0 5 38 -20 48 -16 6 -26 6 -22 1 6 -11 -4 -11 -31 0 -11 5 -28 4
-39 -1 -10 -6 -21 -6 -25 -2 -3 5 -15 10 -26 11 -37 3 -78 14 -99 26 -12 6
-28 12 -36 12 -8 0 -22 5 -30 10 -32 21 -63 35 -77 35 -8 0 -11 5 -8 11 4 6 1
10 -6 8 -27 -3 -40 1 -33 12 4 8 0 8 -15 0 -14 -8 -21 -8 -21 -1 0 5 -9 10
-21 10 -13 0 -18 -4 -13 -12 6 -10 5 -10 -8 -1 -8 7 -18 10 -21 6 -4 -3 -7 14
-7 38 0 46 -25 156 -57 250 l-19 56 62 -53 c64 -53 134 -101 228 -154 61 -35
170 -53 225 -38 33 9 33 10 29 56 -3 30 -27 92 -64 168 l-59 121 45 -32 c124
-88 309 -165 396 -165 19 0 45 -5 56 -11 29 -15 43 2 28 32 -18 34 -127 177
-171 224 -32 34 -83 109 -296 432 -44 67 -113 199 -113 218 0 11 12 15 49 15
38 0 61 -7 100 -31 71 -44 448 -224 563 -269 53 -21 106 -45 118 -53 23 -16
50 -13 50 7 1 6 16 18 35 27 31 15 39 14 107 -5 99 -27 325 -29 411 -3 31 10
57 21 57 26 0 4 10 12 22 18 l21 9 -23 22 c-13 12 -73 47 -134 78 -61 31 -165
84 -231 119 -66 35 -189 99 -272 142 -94 49 -171 96 -200 123 l-48 45 60 6
c150 16 320 60 446 115 34 15 51 15 235 -6 167 -19 228 -21 376 -16 108 4 197
13 230 22 29 8 80 22 113 30 33 8 95 26 138 40 95 29 163 30 299 4 106 -21
150 -24 161 -14 11 11 -14 51 -44 68 -33 20 -236 109 -464 205 -228 96 -492
220 -548 256 l-47 32 42 12 c24 7 75 30 113 51 62 34 137 55 267 78 28 4 196
-78 316 -154 79 -51 238 -128 322 -157 80 -27 362 -82 477 -93 39 -4 122 -1
186 5 181 19 242 40 205 70 -7 6 -61 52 -119 103 -203 178 -277 236 -479 371
-80 53 -156 106 -170 117 -14 11 -63 45 -110 77 -123 82 -252 176 -359 262
-198 160 -228 186 -301 254 l-75 70 60 -7 c80 -10 183 -36 353 -91 172 -55
283 -101 523 -216 212 -101 349 -143 507 -154 90 -7 106 -5 212 25 124 34 151
47 176 85 15 23 15 26 -5 54 -11 16 -103 84 -203 152 -184 123 -353 245 -418
300 -19 16 -38 29 -42 29 -5 0 -63 38 -131 83 -133 91 -282 184 -479 298 -69
41 -144 84 -165 96 l-38 23 55 -6 c30 -3 99 -14 152 -25 53 -10 114 -19 135
-19 21 0 79 -8 128 -17 69 -12 156 -16 375 -17 l285 -1 138 32 c76 18 170 48
210 66 74 35 168 103 225 165 52 58 40 62 -209 73 -118 5 -266 14 -329 19 -63
5 -171 13 -240 19 -69 5 -146 15 -170 20 -25 6 -74 11 -110 11 -36 0 -110 6
-165 14 -123 19 -253 34 -410 48 -66 6 -124 14 -128 18 -4 4 27 12 70 19 168
25 202 31 318 56 66 15 158 32 205 39 47 7 112 20 145 29 33 9 121 25 195 37
160 26 528 116 655 160 50 18 126 49 170 70 252 120 649 447 722 595 32 63 58
153 48 163 -3 3 -20 0 -38 -7 -18 -7 -66 -21 -107 -31 -77 -20 -289 -90 -479
-159 -275 -101 -575 -180 -866 -230 -66 -11 -174 -29 -240 -41 -157 -26 -166
-25 -70 9 267 95 369 136 469 190 62 32 151 73 199 90 124 43 246 112 476 268
58 40 138 91 176 114 100 59 302 266 387 395 79 121 178 288 178 302 0 5 11
30 25 53 36 63 31 137 -6 92z m-14649 -1318 c17 -9 30 -18 30 -20 0 -5 -70 22
-79 30 -10 11 22 4 49 -10z m8734 -4864 c17 -19 17 -21 3 -21 -10 0 -17 -4
-17 -8 0 -5 -7 -9 -15 -9 -9 0 -15 10 -15 23 0 12 -3 30 -7 39 -5 14 -3 16 13
7 11 -6 28 -20 38 -31z m469 -213 c44 -41 145 -105 183 -114 13 -3 27 -11 31
-17 3 -5 1 -7 -5 -3 -6 3 -13 2 -17 -4 -3 -5 -15 -10 -26 -10 -10 0 -19 -6
-19 -12 0 -9 -4 -8 -10 2 -8 13 -10 13 -10 -2 0 -9 -5 -20 -12 -24 -7 -4 -8
-3 -4 4 10 17 -10 15 -28 -3 -8 -8 -19 -15 -25 -15 -6 0 -11 -5 -11 -11 0 -5
-3 -8 -7 -6 -10 6 -34 -19 -26 -27 4 -3 1 -6 -5 -6 -7 0 -15 0 -19 0 -5 -1
-11 13 -14 30 -4 18 -2 30 4 30 5 0 2 9 -8 20 -13 14 -14 20 -5 20 8 0 4 10
-11 26 -21 22 -21 24 -4 19 20 -7 20 -6 0 10 -11 9 -19 21 -17 26 1 5 -1 9 -5
9 -5 0 -9 35 -10 78 l-2 77 21 -30 c12 -16 40 -47 61 -67z m-885 -850 c6 -16
10 -28 7 -28 -5 0 -35 56 -35 67 0 12 15 -10 28 -39z m-42 -3 c-3 -8 -2 -15 2
-15 7 0 26 -30 38 -62 3 -10 13 -18 20 -18 8 0 14 -7 14 -15 0 -8 -5 -15 -11
-15 -5 0 -8 -4 -5 -8 5 -9 -28 -42 -43 -42 -5 0 -11 -9 -14 -21 -4 -14 -10
-18 -19 -13 -9 6 -9 2 2 -12 8 -10 11 -16 6 -12 -11 10 -49 -39 -41 -52 3 -6
-1 -13 -9 -16 -9 -3 -14 -10 -11 -14 3 -4 -2 -10 -10 -14 -9 -3 -12 -12 -8
-23 4 -13 3 -15 -5 -8 -8 8 -8 23 3 57 7 26 18 88 24 139 7 67 17 103 36 135
25 43 43 59 31 29z m64 -45 c0 -4 -7 -7 -15 -6 -23 3 -26 12 -5 13 11 1 20 -2
20 -7z m30 -64 c0 -5 -7 -1 -15 10 -8 10 -14 24 -14 29 0 6 6 1 14 -9 8 -11
15 -24 15 -30z m1555 -176 c3 -6 -1 -7 -9 -4 -18 7 -21 14 -7 14 6 0 13 -4 16
-10z m-1749 -139 c0 -16 -9 -34 -19 -40 -17 -11 -17 -11 -1 14 13 20 13 25 3
26 -11 0 -11 2 -1 6 6 2 10 9 6 14 -3 5 -1 9 4 9 5 0 9 -13 8 -29z m32 -366
c-3 -3 -9 2 -12 12 -6 14 -5 15 5 6 7 -7 10 -15 7 -18z m402 7 c0 -5 -7 -9
-15 -9 -8 0 -12 4 -9 9 3 4 9 8 15 8 5 0 9 -4 9 -8z m430 -67 c0 -9 4 -14 8
-11 4 2 9 -7 9 -22 2 -24 0 -23 -19 13 -12 22 -22 43 -23 47 0 3 -3 10 -7 14
-5 4 -8 12 -8 17 0 5 9 -2 20 -16 11 -14 20 -33 20 -42z m-490 5 c0 -5 -5 -10
-11 -10 -5 0 -7 5 -4 10 3 6 8 10 11 10 2 0 4 -4 4 -10z m570 -135 c0 -7 -30
-13 -34 -7 -3 4 4 9 15 9 10 1 19 0 19 -2z m-17 -77 c3 -21 2 -38 -4 -38 -5 0
-9 19 -9 42 0 49 5 47 13 -4z m12 -87 c3 -5 1 -12 -5 -16 -5 -3 -10 1 -10 9 0
18 6 21 15 7z m5 -35 c0 -3 -4 -8 -10 -11 -5 -3 -10 -1 -10 4 0 6 5 11 10 11
6 0 10 -2 10 -4z m-5 -36 c3 -5 1 -10 -4 -10 -6 0 -11 5 -11 10 0 6 2 10 4 10
3 0 8 -4 11 -10z m-5581 -36 c3 -8 2 -12 -4 -9 -6 3 -10 10 -10 16 0 14 7 11
14 -7z m5542 -149 c-1 -8 -5 -17 -8 -21 -5 -4 -4 16 1 34 3 9 9 -1 7 -13z
m-256 -190 c-1 -5 -6 0 -13 13 -7 12 -15 20 -18 18 -3 -3 -6 5 -6 16 -2 19 0
18 17 -7 11 -17 20 -34 20 -40z m240 -219 c0 -2 -7 -7 -16 -10 -8 -3 -12 -2
-9 4 6 10 25 14 25 6z m-4380 -1690 c0 -2 -7 -7 -16 -10 -8 -3 -12 -2 -9 4 6
10 25 14 25 6z m-40 -30 c0 -2 -12 -11 -27 -20 l-28 -17 24 20 c23 21 31 25
31 17z m4320 -1521 c13 -14 21 -25 18 -25 -2 0 -15 11 -28 25 -13 14 -21 25
-18 25 2 0 15 -11 28 -25z m-109 -330 c7 -13 3 -12 -10 5 -11 14 -21 30 -21
35 0 11 14 -7 31 -40z m-3262 -2115 c11 -24 11 -24 -3 -6 -9 11 -16 24 -16 30
0 12 5 7 19 -24z m176 -330 c9 -16 13 -30 11 -30 -3 0 -12 14 -21 30 -9 17
-13 30 -11 30 3 0 12 -13 21 -30z"/>
<path d="M11220 9871 c0 -6 4 -13 10 -16 6 -3 7 1 4 9 -7 18 -14 21 -14 7z"/>
<path d="M11229 9796 c9 -11 9 -15 -1 -19 -9 -4 -10 -6 -1 -6 7 -1 10 -8 7
-16 -4 -8 -1 -15 4 -15 15 0 24 18 13 25 -6 3 -8 12 -5 19 3 7 -2 16 -12 20
-14 5 -15 4 -5 -8z"/>
<path d="M11253 9677 c1 -19 5 -33 9 -31 7 5 4 52 -5 60 -3 4 -5 -10 -4 -29z"/>
<path d="M8710 2805 c0 -5 5 -17 10 -25 5 -8 10 -10 10 -5 0 6 -5 17 -10 25
-5 8 -10 11 -10 5z"/>
<path d="M8750 2726 c0 -10 40 -76 46 -76 3 0 -2 12 -10 28 -22 40 -36 58 -36
48z"/>
</g>
</svg>
